<!DOCTYPE svg PUBLIC "-//W3C//DTD SVG 1.1//EN" "http://www.w3.org/Graphics/SVG/1.1/DTD/svg11.dtd">

<!-- Uploaded to: SVG Repo, www.svgrepo.com, Transformed by: SVG Repo Mixer Tools -->
<svg width="800px" height="800px" viewBox="0 0 24 24" fill="none" xmlns="http://www.w3.org/2000/svg">

<g id="SVGRepo_bgCarrier" stroke-width="0"/>

<g id="SVGRepo_tracerCarrier" stroke-linecap="round" stroke-linejoin="round"/>

<g id="SVGRepo_iconCarrier"> 
<path d="M16.1007 13.359L15.5719 12.8272H15.5719L16.1007 13.359ZM16.5562 12.9062L17.085 13.438H17.085L16.5562 12.9062ZM18.9728 12.5894L18.6146 13.2483L18.9728 12.5894ZM20.8833 13.628L20.5251 14.2869L20.8833 13.628ZM21.4217 16.883L21.9505 17.4148L21.4217 16.883ZM20.0011 18.2954L19.4723 17.7636L20.0011 18.2954ZM18.6763 18.9651L18.7459 19.7119H18.7459L18.6763 18.9651ZM8.81536 14.7266L9.34418 14.1947L8.81536 14.7266ZM4.00289 5.74561L3.2541 5.78816L3.2541 5.78816L4.00289 5.74561ZM10.4775 7.19738L11.0063 7.72922H11.0063L10.4775 7.19738ZM10.6342 4.54348L11.2346 4.09401L10.6342 4.54348ZM9.37326 2.85908L8.77286 3.30855V3.30855L9.37326 2.85908ZM6.26145 2.57483L6.79027 3.10667H6.79027L6.26145 2.57483ZM4.69185 4.13552L4.16303 3.60368H4.16303L4.69185 4.13552ZM12.0631 11.4972L12.5919 10.9654L12.0631 11.4972ZM16.6295 13.8909L17.085 13.438L16.0273 12.3743L15.5719 12.8272L16.6295 13.8909ZM18.6146 13.2483L20.5251 14.2869L21.2415 12.9691L19.331 11.9305L18.6146 13.2483ZM20.8929 16.3511L19.4723 17.7636L20.5299 18.8273L21.9505 17.4148L20.8929 16.3511ZM18.6067 18.2184C17.1568 18.3535 13.4056 18.2331 9.34418 14.1947L8.28654 15.2584C12.7186 19.6653 16.9369 19.8805 18.7459 19.7119L18.6067 18.2184ZM9.34418 14.1947C5.4728 10.3453 4.83151 7.10765 4.75168 5.70305L3.2541 5.78816C3.35456 7.55599 4.14863 11.144 8.28654 15.2584L9.34418 14.1947ZM10.7195 8.01441L11.0063 7.72922L9.9487 6.66555L9.66189 6.95073L10.7195 8.01441ZM11.2346 4.09401L9.97365 2.40961L8.77286 3.30855L10.0338 4.99395L11.2346 4.09401ZM7.31908 3.63863L6.79027 3.10667L5.73263 4.17035L6.26145 4.70219L7.31908 3.63863ZM6.12227 4.66785L6.26145 4.70219L6.26145 2.57483L6.12227 2.54049L6.12227 4.66785ZM12.0631 11.4972L11.0063 10.4335L10.4775 10.9654L11.5342 12.029L12.0631 11.4972Z" fill="#dc3545" stroke="#dc3545"/>
</g>

</svg>
